<svg xmlns="http://www.w3.org/2000/svg" viewBox="0 0 358.79 111.5"><title>erreur404</title><line x1="71" y1="2.1" x2="356.7" y2="2.1" style="fill:none;stroke:#0c0c0c;stroke-linecap:round;stroke-miterlimit:10;stroke-width:4.19248528158422px"/><line x1="71" y1="62.7" x2="356.7" y2="62.7" style="fill:none;stroke:#0c0c0c;stroke-linecap:round;stroke-miterlimit:10;stroke-width:4.19248528158422px"/><path d="M58.81,0H17.07A17.09,17.09,0,0,0,0,17.07V58.81a6,6,0,0,0,6,6H47.73A17.09,17.09,0,0,0,64.8,47.73V6A6,6,0,0,0,58.81,0ZM48.89,53.05h-33V11.75H48.24V20H26.41v8.2H46.12v8.26H26.41v8.32H48.89Z" style="fill:#f89b26"/><path d="M90.68,41.13H82.42V52.76H71.91V11.45H90.38c10.92,0,17.17,5.2,17.17,14.4,0,6.32-2.65,10.86-7.49,13.28l8.67,13.63H96.81Zm-.3-8.26c4.54,0,7.2-2.3,7.2-6.66s-2.66-6.49-7.2-6.49h-8V32.87Z" style="fill:#0c0c0c"/><path d="M152.69,41.13h-8.26V52.76H133.92V11.45h18.47c10.92,0,17.17,5.2,17.17,14.4,0,6.32-2.65,10.86-7.49,13.28l8.67,13.63H158.83Zm-.3-8.26c4.55,0,7.2-2.3,7.2-6.66s-2.65-6.49-7.2-6.49h-8V32.87Z" style="fill:#0c0c0c"/><path d="M206.44,19.72v8.2h19.71v8.26H206.44V44.5h22.48v8.26h-33V11.45h32.33v8.27Z" style="fill:#0c0c0c"/><path d="M292.17,35.41c0,10.92-7.25,17.82-18.82,17.82s-19.06-6.9-19.06-17.82v-24H264.8v24c0,5.61,3.59,9,8.61,9s8.32-3.42,8.32-9v-24h10.44Z" style="fill:#0c0c0c"/><path d="M337.78,41.13h-8.26V52.76H319V11.45h18.47c10.91,0,17.17,5.2,17.17,14.4,0,6.32-2.66,10.86-7.49,13.28l8.67,13.63H343.92Zm-.29-8.26c4.54,0,7.2-2.3,7.2-6.66s-2.66-6.49-7.2-6.49h-8V32.87Z" style="fill:#0c0c0c"/><path d="M136.39,95.43V87.24h9v8.19h5.19v7.38h-5.19v8.41h-9v-8.41H118.25v-6.5L130.33,73h9.34L128.31,95.43Z"/><path d="M193,92.05c0,12.51-6.07,19.45-16.89,19.45s-17-6.94-17-19.45,6.06-19.4,17-19.4S193,79.59,193,92.05Zm-23.88,0c0,8.74,2.07,12.34,7,12.34s6.94-3.6,6.94-12.34-2.13-12.3-6.94-12.3S169.07,83.3,169.07,92.05Z"/><path d="M220.32,95.43V87.24h9v8.19h5.2v7.38h-5.2v8.41h-9v-8.41H202.18v-6.5L214.25,73h9.35L212.23,95.43Z"/></svg>