<svg xmlns="http://www.w3.org/2000/svg" viewBox="0 0 358.79 64.8"><title>logo_noir_1</title><path d="M58.81,0H17.07A17.09,17.09,0,0,0,0,17.07V58.81a6,6,0,0,0,6,6H47.73A17.09,17.09,0,0,0,64.8,47.73V6A6,6,0,0,0,58.81,0ZM35.23,44.11c3.44,0,7.4-1.86,10.25-4.77l6.07,6.41A24.69,24.69,0,0,1,34.7,53.21c-12.29,0-21.44-9-21.44-21,0-11.78,9.38-20.64,21.79-20.64a23.73,23.73,0,0,1,16.44,6.88l-6,7.11a14,14,0,0,0-10.25-5.3c-6.47,0-11.37,5.13-11.37,11.83S28.76,44.11,35.23,44.11Z" style="fill:#f89b26"/><path d="M115.12,32.28c0,11.89-9.44,20.93-22.09,20.93s-22-9-22-20.93,9.44-20.69,22-20.69S115.12,20.45,115.12,32.28Zm-33.51.06c0,6.88,5.3,12.18,11.54,12.18s11.3-5.3,11.3-12.18-5-12.06-11.3-12.06A11.72,11.72,0,0,0,81.61,32.34Z" style="fill:#0c0c0c"/><path d="M157.24,41.26h-8.16V52.74H138.71V11.94H157c10.78,0,17,5.13,17,14.22,0,6.24-2.62,10.73-7.4,13.12l8.56,13.46H163.3ZM157,33.1c4.49,0,7.11-2.27,7.11-6.59S161.44,20.1,157,20.1h-7.87v13Z" style="fill:#0c0c0c"/><path d="M227.52,52.74,208.75,27.62V52.74H199V11.94h9.15L227,37.12V11.94h9.68v40.8Z" style="fill:#0c0c0c"/><path d="M273.31,20.1v8.1h19.47v8.16H273.31v8.22h22.21v8.16H262.94V11.94h31.94V20.1Z" style="fill:#0c0c0c"/><path d="M338.87,41.26h-8.16V52.74H320.33V11.94h18.24c10.79,0,17,5.13,17,14.22,0,6.24-2.62,10.73-7.4,13.12l8.57,13.46H344.93Zm-.3-8.16c4.49,0,7.11-2.27,7.11-6.59s-2.62-6.41-7.11-6.41h-7.86v13Z" style="fill:#0c0c0c"/><line x1="71" y1="2.1" x2="356.7" y2="2.1" style="fill:none;stroke:#0c0c0c;stroke-linecap:round;stroke-miterlimit:10;stroke-width:4.19248528158422px"/><line x1="71" y1="62.7" x2="356.7" y2="62.7" style="fill:none;stroke:#0c0c0c;stroke-linecap:round;stroke-miterlimit:10;stroke-width:4.19248528158422px"/></svg>