<svg xmlns="http://www.w3.org/2000/svg" viewBox="0 0 1920 714.05"><title>illustration</title><path d="M513.21,338.56l.35,10.66a721.41,721.41,0,0,1,119.22,6q-2.89-5.78-5.81-11.54A734.85,734.85,0,0,0,513.21,338.56Z" style="fill:#686868"/><path d="M1294.41,341.62c-47.9,5.6-89.75,15.39-127.93,29.92-9.33,3.56-18.65,7.49-27.67,11.29-15.24,6.43-31,13.07-46.94,17.93-29.13,8.87-62.16,13.87-101,15.3C897.18,419.5,827.34,395.73,781.11,380c-4.67-1.58-9.12-3.1-13.33-4.5A732,732,0,0,0,627,343.7q2.92,5.76,5.81,11.54a720.57,720.57,0,0,1,131.63,30.38c4.2,1.39,8.62,2.89,13.26,4.47,43.86,14.93,108.65,37,194.9,37q9.2,0,18.72-.35C1031,425.26,1065,420.11,1095,411c16.48-5,32.49-11.77,48-18.3,8.93-3.76,18.16-7.66,27.32-11.15,36.12-13.75,75.7-23.16,120.81-28.73l8.67-11.74C1298,341.23,1296.19,341.41,1294.41,341.62Z" style="fill:#898989"/><path d="M1440.88,332.5l-48,2.23c-30.55,1.43-62.09,2.92-93.13,6.31l-8.67,11.74c1.52-.19,3-.39,4.56-.56,32.39-3.79,65.61-5.34,97.81-6.83l47.91-2.23Z" style="fill:#686868"/><path d="M1795,476.59c-10.74-2-21.73.56-32.58,1.93-15.14,1.9-31.64,1.12-44-7.81-9.27-6.68-15.59-17.48-26.14-21.88-6.44-2.7-13.64-2.62-20.59-3.32-13.94-1.4-28-6.46-37.89-16.28,4.64,16.84,10.89,33.74,22.59,46.89,16.39,18.43,41.23,27.14,65.28,33.77,16.14,4.45,32.75,8.32,49.49,7.35,21.7-1.26,41.89-10.82,58.4-24.86-1.87-.85-3.71-1.77-5.49-2.72C1814.63,484.64,1805.48,478.55,1795,476.59Z" style="fill:#f2beb8"/><path d="M1645,274.82c7.25-9.77,14.7-20.32,25.92-25,6.77-2.84,14.37-3.28,21.07-6.29,12.08-5.43,19.8-18.51,32.43-22.48,11.66-3.67,24.46,1.43,36.47-.88,6.29-1.21,12-4.4,18-6.57s13-3.26,18.69-.34c7.62,3.9,10.27,13.19,13.93,20.92,4.66,9.84,11.91,18.17,19.07,26.37L1845.87,278c4.91,5.62,9.85,11.27,15.52,16.13,7.79,6.66,16.75,11.63,26.11,15.88a220,220,0,0,0-5-37.88c-6.48-28.72-19.37-55.72-34.26-81.28-9.2-15.79-19.37-31.34-33-43.66-31.49-28.33-84.65-36.31-119.27-9.56-18.64,14.41-31.26,35-41.28,56a339.59,339.59,0,0,0-30.33,105.21A184.25,184.25,0,0,0,1645,274.82Z" style="fill:#f2beb8"/><path d="M1861.39,294.1c-5.67-4.86-10.61-10.51-15.52-16.13l-15.24-17.46c-7.16-8.2-14.41-16.53-19.07-26.37-3.66-7.73-6.31-17-13.93-20.92-5.71-2.92-12.66-1.83-18.69.34s-11.76,5.36-18,6.57c-12,2.31-24.81-2.79-36.47.88-12.63,4-20.35,17.05-32.43,22.48-6.7,3-14.3,3.45-21.07,6.29-11.22,4.72-18.67,15.27-25.92,25a184.25,184.25,0,0,1-20.69,24,339.41,339.41,0,0,0,9.28,129.74l.18.67c9.89,9.82,24,14.88,37.89,16.28,6.95.7,14.15.62,20.59,3.32,10.55,4.4,16.87,15.2,26.14,21.88,12.38,8.93,28.88,9.71,44,7.81,10.85-1.37,21.84-3.93,32.58-1.93,10.49,2,19.64,8.05,29,13.07,1.78.95,3.62,1.87,5.49,2.72a125.91,125.91,0,0,0,23-25.71c18.29-27.24,26.5-59.77,31.21-92,3.13-21.38,4.84-43.13,3.8-64.67C1878.14,305.73,1869.18,300.76,1861.39,294.1Z" style="fill:#fcd6d2"/><path d="M261.37,455.61c-10.05-1.76-20.07,2.94-28.71,8.38s-17,11.87-26.95,14.19c-6.48,1.51-13.25,1.17-19.87,1.91A61.66,61.66,0,0,0,148,499l-.41.46c.36.16.69.34,1,.49,11.82,4.89,25.69,5.72,39,4.78,36.55-2.59,70.83-18.95,92.2-42.58l-.55-.14C273.2,460.2,267.63,456.7,261.37,455.61Z" style="fill:#f2beb8"/><path d="M139.12,246.17c21.49-12.91,39.66-33.25,64.31-37.77,6.41-1.18,13-1.2,19.41-2.34,19.56-3.46,36.3-17.34,46.31-34.49,1.44-2.47,2.74-5,3.94-7.59-1.33-1.58-2.65-3.16-4-4.72a274.74,274.74,0,0,0-92.89-68.8c-20.54-9.27-30.9-9.17-49,3.17A117,117,0,0,0,91.71,132.1c-11.46,19.93-17,41.66-21.61,63.27-6.27,29.39-11,59.13-12.33,88.9A142.38,142.38,0,0,1,71.38,276C93.21,264.45,117.94,258.89,139.12,246.17Z" style="fill:#f2beb8"/><path d="M329.8,274.09c-10.65-39-28.92-76.93-56.71-110.11-1.2,2.58-2.5,5.12-3.94,7.59-10,17.15-26.75,31-46.31,34.49-6.42,1.14-13,1.16-19.41,2.34-24.65,4.52-42.82,24.86-64.31,37.77C117.94,258.89,93.21,264.45,71.38,276a142.38,142.38,0,0,0-13.61,8.25,337.21,337.21,0,0,0,2,57.69C66,390.8,85,439.34,121.26,479c7.28,8,15.55,15.71,26.36,20.46L148,499a61.66,61.66,0,0,1,37.81-19c6.62-.74,13.39-.4,19.87-1.91,9.94-2.32,18.31-8.75,26.95-14.19s18.66-10.14,28.71-8.38c6.26,1.09,11.83,4.59,17.91,6.44l.55.14a92.41,92.41,0,0,0,15.27-22.64c14.07-30,9.36-62.65,6.31-95a27.68,27.68,0,0,1,16-27.61c5.73-2.7,10.49-7.17,12.82-12.16C334.79,295,332.57,284.22,329.8,274.09Z" style="fill:#fcd6d2"/><path d="M500.64,453.88c-9.55-12.9-25.78-18.82-41.4-22.49s-32-5.89-45.81-14c-1.61-.94-3.15-2-4.66-3.05,3.21,17.92,6.06,36.58.55,53.87-4.24,13.34-13.11,24.64-21.8,35.61-17.08,21.57-50.26,51.4-75.13,63.17-59.68,28.25-178,6-198.28,8.51-39.23,4.93-44.82-8.32-84.25-11.1-7-.5-15.17-.62-19.74,4.73-2.43,2.85-3.27,6.69-4,10.37-2.56,13,1.2,38-.48,51.11-1.27,10-2.21,20.6,1.91,29.8C12.21,670.82,44.42,699.1,55.46,702c35.53,9.34,79.59,13.24,116.29,11.74,44-1.8,155.12-8.92,193.8-29.87,45.83-24.83,101.78-80.06,128.18-125a360,360,0,0,0,26.47-55.5,69.11,69.11,0,0,1-5.77-13.44C510.51,477.59,508.34,464.27,500.64,453.88Z" style="fill:#fcd6d2"/><path d="M543.2,353.18c-9.33-8.34-23.2-10.36-35-6.23-38.25,13.35-70.65,37.13-99.8,65.27.12.69.25,1.4.38,2.1,1.51,1.07,3.05,2.11,4.66,3.05,13.83,8.13,30.19,10.36,45.81,14s31.85,9.59,41.4,22.49c7.7,10.39,9.87,23.71,13.79,36a69.11,69.11,0,0,0,5.77,13.44A366.22,366.22,0,0,0,543.2,353.18Z" style="fill:#f2beb8"/><path d="M581.57,271.12a8.3,8.3,0,0,0-1.94-4c-1.25-1.18-3.07-1.48-4.78-1.71-4-.54-7.9-1-11.86-1.5.29,1.36.57,2.73.86,4.09,1.23,5.83,2.46,11.79,1.79,17.71s-3.57,11.91-8.8,14.77c-8.15,4.46-18.13,0-26.31-4.42-10.17,11-29.77,11-40,.09-10.65,8.45-27.15,8.43-37.78,0-.91-.72-1.94-1.55-3.09-1.36a4.31,4.31,0,0,0-2.06,1.31c-8.5,7.8-23.11,7.61-31.4-.41-5-4.85-7.51-11.63-10.18-18.06a212.64,212.64,0,0,0-9.81-20.49H395q-19.92.19-39.82.52c-.07.46-.13.93-.2,1.39a390.74,390.74,0,0,1,5.64,151.72,61.07,61.07,0,0,1-2.83,12c-.69,1.8-1.53,3.57-2.34,5.35q37.78-3.74,75.54-7.91,5.16-14.86,11.05-29.47c2.18-5.37,4.49-10.8,8.13-15.3.86-1.06,1.94-2.14,3.3-2.18,2.38-.06,3.54,2.84,4,5.18a135.33,135.33,0,0,1,1.36,38.7Q517.56,410.5,576.19,403c2.09-.27,4.3-.59,6-1.9,2.12-1.66,2.85-4.5,3.4-7.14A260,260,0,0,0,581.57,271.12Z" style="fill:#f89b26"/><path d="M416.22,295.69c8.29,8,22.9,8.21,31.4.41a4.31,4.31,0,0,1,2.06-1.31c1.15-.19,2.18.64,3.09,1.36,10.63,8.47,27.13,8.49,37.78,0,10.21,10.92,29.81,10.87,40-.09,8.18,4.42,18.16,8.88,26.31,4.42,5.23-2.86,8.13-8.85,8.8-14.77s-.56-11.88-1.79-17.71c-.29-1.36-.57-2.73-.86-4.09-3.31-.4-6.62-.77-9.93-1.13-52-5.6-104.43-6.18-156.83-5.68A212.64,212.64,0,0,1,406,277.63C408.71,284.06,411.22,290.84,416.22,295.69Z" style="fill:#e07500"/><path d="M457.47,378.43c-.43-2.34-1.59-5.24-4-5.18-1.36,0-2.44,1.12-3.3,2.18-3.64,4.5-5.95,9.93-8.13,15.3Q436.16,405.31,431,420.2q13.91-1.51,27.81-3.07A135.33,135.33,0,0,0,457.47,378.43Z" style="fill:#e07500"/><path d="M360.65,410.78A390.74,390.74,0,0,0,355,259.06c-8.41,54.61-7.74,114.47.42,169.05h.05c.81-1.78,1.65-3.55,2.34-5.35A61.07,61.07,0,0,0,360.65,410.78Z" style="fill:#e07500"/><path d="M532.58,281c1.81,3,3.72,6,6.68,7.86,2.61,1.61,5.76,2.06,8.82,2.26,5.19.34,10.78-.09,14.9-3.27s5.93-8.6,5.62-13.74-2.54-10-5.41-14.28c-6.71-10-17.83-17.71-29.9-17.8-4.07,0-8.3.86-11.49,3.38C510.21,254.58,527.4,272.51,532.58,281Z" style="fill:#fcd6d2"/><path d="M492.3,281c1.81,3,3.73,6,6.68,7.86,2.62,1.61,5.77,2.06,8.83,2.26,5.18.34,10.78-.09,14.89-3.27s5.93-8.6,5.63-13.74-2.55-10-5.41-14.28c-6.72-10-17.84-17.71-29.91-17.8-4.07,0-8.3.86-11.49,3.38C469.93,254.58,487.12,272.51,492.3,281Z" style="fill:#fcd6d2"/><path d="M452,281c1.81,3,3.72,6,6.68,7.86,2.61,1.61,5.76,2.06,8.82,2.26,5.19.34,10.78-.09,14.89-3.27s5.94-8.6,5.63-13.74-2.54-10-5.41-14.28c-6.71-10-17.83-17.71-29.9-17.8-4.07,0-8.3.86-11.5,3.38C429.66,254.58,446.85,272.51,452,281Z" style="fill:#fcd6d2"/><path d="M411.75,281c1.81,3,3.73,6,6.68,7.86,2.61,1.61,5.77,2.06,8.83,2.26,5.18.34,10.78-.09,14.89-3.27s5.93-8.6,5.62-13.74-2.54-10-5.4-14.28c-6.72-10-17.84-17.71-29.91-17.8-4.07,0-8.3.86-11.49,3.38C389.38,254.58,406.57,272.51,411.75,281Z" style="fill:#fcd6d2"/><path d="M413.07,371.4c8.2-8.57,20.24-15.63,31.5-11.92,11.06,3.65,16.75,17.63,12.85,28.6-1.21,3.41-3.16,6.54-4.3,10-1,3-1.35,6.24-2.24,9.31-2.5,8.68-9.31,15.75-17.42,19.73s-17.41,5.08-26.42,4.4C374,429,401.31,383.69,413.07,371.4Z" style="fill:#fcd6d2"/><path d="M1411.24,453.88c9.54-12.9,25.78-18.82,41.4-22.49s32-5.89,45.81-14c1.61-.94,3.15-2,4.66-3.05-3.21,17.92-6.06,36.58-.55,53.87,4.24,13.34,13.11,24.64,21.8,35.61,17.08,21.57,50.26,51.4,75.13,63.17,59.68,28.25,178,6,198.28,8.51,39.23,4.93,44.82-8.32,84.25-11.1,7-.5,15.17-.62,19.74,4.73,2.43,2.85,3.27,6.69,4,10.37,2.56,13-1.2,38,.47,51.11,1.28,10,2.22,20.6-1.9,29.8-4.66,10.43-36.87,38.71-47.91,41.61-35.53,9.34-79.59,13.24-116.29,11.74-44-1.8-155.12-8.92-193.8-29.87-45.83-24.83-101.78-80.06-128.18-125a361,361,0,0,1-26.48-55.5,68.55,68.55,0,0,0,5.78-13.44C1401.37,477.59,1403.54,464.27,1411.24,453.88Z" style="fill:#fcd6d2"/><path d="M1368.68,353.18c9.32-8.34,23.2-10.36,35-6.23,38.25,13.35,70.65,37.13,99.8,65.27-.13.69-.25,1.4-.38,2.1-1.51,1.07-3,2.11-4.66,3.05-13.83,8.13-30.19,10.36-45.81,14s-31.86,9.59-41.4,22.49c-7.7,10.39-9.87,23.71-13.79,36a68.55,68.55,0,0,1-5.78,13.44A366.38,366.38,0,0,1,1368.68,353.18Z" style="fill:#f2beb8"/><path d="M1330.31,271.12a8.21,8.21,0,0,1,1.94-4c1.25-1.18,3.07-1.48,4.78-1.71,4-.54,7.9-1,11.86-1.5-.29,1.36-.58,2.73-.86,4.09-1.23,5.83-2.46,11.79-1.79,17.71s3.57,11.91,8.8,14.77c8.15,4.46,18.13,0,26.31-4.42,10.16,11,29.77,11,40,.09,10.65,8.45,27.15,8.43,37.78,0,.91-.72,1.94-1.55,3.09-1.36a4.31,4.31,0,0,1,2.06,1.31c8.5,7.8,23.11,7.61,31.4-.41,5-4.85,7.5-11.63,10.17-18.06a215.12,215.12,0,0,1,9.82-20.49h1.2q19.9.19,39.82.52c.07.46.13.93.2,1.39a390.74,390.74,0,0,0-5.64,151.72,61.07,61.07,0,0,0,2.83,12c.68,1.8,1.53,3.57,2.34,5.35q-37.79-3.74-75.55-7.91-5.16-14.86-11-29.47c-2.18-5.37-4.49-10.8-8.14-15.3-.85-1.06-1.93-2.14-3.29-2.18-2.38-.06-3.54,2.84-4,5.18a135.33,135.33,0,0,0-1.36,38.7q-58.72-6.63-117.36-14.18c-2.1-.27-4.31-.59-6-1.9-2.12-1.66-2.85-4.5-3.4-7.14A259.84,259.84,0,0,1,1330.31,271.12Z" style="fill:#f89b26"/><path d="M1495.66,295.69c-8.29,8-22.9,8.21-31.4.41a4.31,4.31,0,0,0-2.06-1.31c-1.15-.19-2.18.64-3.09,1.36-10.63,8.47-27.13,8.49-37.78,0-10.21,10.92-29.82,10.87-40-.09-8.18,4.42-18.16,8.88-26.31,4.42-5.23-2.86-8.14-8.85-8.8-14.77s.56-11.88,1.79-17.71c.28-1.36.57-2.73.86-4.09,3.31-.4,6.62-.77,9.93-1.13,52-5.6,104.43-6.18,156.83-5.68a215.12,215.12,0,0,0-9.82,20.49C1503.16,284.06,1500.66,290.84,1495.66,295.69Z" style="fill:#e07500"/><path d="M1454.41,378.43c.43-2.34,1.59-5.24,4-5.18,1.36,0,2.44,1.12,3.29,2.18,3.65,4.5,6,9.93,8.14,15.3q5.91,14.58,11,29.47-13.89-1.51-27.8-3.07A135.33,135.33,0,0,1,1454.41,378.43Z" style="fill:#e07500"/><path d="M1551.23,410.78a390.74,390.74,0,0,1,5.64-151.72c8.41,54.61,7.74,114.47-.43,169.05h0c-.81-1.78-1.66-3.55-2.34-5.35A61.07,61.07,0,0,1,1551.23,410.78Z" style="fill:#e07500"/><path d="M1379.3,281c-1.81,3-3.72,6-6.68,7.86-2.61,1.61-5.76,2.06-8.82,2.26-5.19.34-10.79-.09-14.9-3.27s-5.93-8.6-5.62-13.74,2.54-10,5.41-14.28c6.71-10,17.83-17.71,29.9-17.8,4.07,0,8.3.86,11.49,3.38C1401.67,254.58,1384.48,272.51,1379.3,281Z" style="fill:#fcd6d2"/><path d="M1419.57,281c-1.8,3-3.72,6-6.68,7.86-2.61,1.61-5.76,2.06-8.82,2.26-5.19.34-10.78-.09-14.89-3.27s-5.94-8.6-5.63-13.74,2.55-10,5.41-14.28c6.72-10,17.83-17.71,29.91-17.8,4.07,0,8.29.86,11.49,3.38C1442,254.58,1424.76,272.51,1419.57,281Z" style="fill:#fcd6d2"/><path d="M1459.85,281c-1.81,3-3.72,6-6.68,7.86-2.61,1.61-5.76,2.06-8.82,2.26-5.19.34-10.78-.09-14.9-3.27s-5.93-8.6-5.62-13.74,2.54-10,5.41-14.28c6.71-10,17.83-17.71,29.9-17.8,4.07,0,8.3.86,11.49,3.38C1482.22,254.58,1465,272.51,1459.85,281Z" style="fill:#fcd6d2"/><path d="M1500.13,281c-1.81,3-3.73,6-6.68,7.86-2.62,1.61-5.77,2.06-8.83,2.26-5.18.34-10.78-.09-14.89-3.27s-5.93-8.6-5.63-13.74,2.55-10,5.41-14.28c6.72-10,17.84-17.71,29.91-17.8,4.07,0,8.3.86,11.49,3.38C1522.5,254.58,1505.31,272.51,1500.13,281Z" style="fill:#fcd6d2"/><path d="M1498.81,371.4c-8.2-8.57-20.24-15.63-31.5-11.92-11.06,3.65-16.75,17.63-12.85,28.6,1.21,3.41,3.16,6.54,4.3,10,1,3,1.35,6.24,2.23,9.31,2.51,8.68,9.32,15.75,17.43,19.73s17.41,5.08,26.42,4.4C1537.86,429,1510.57,383.69,1498.81,371.4Z" style="fill:#fcd6d2"/><path d="M249.14,362.79l-23.77-9.39c-4.78-1.89-9.72-3.82-14.87-3.76-12.23.13-21.78,11.55-24.76,23.41-4.24,16.86,1.68,35.49,13.72,48S229,440.21,246.41,440.5c12.91.21,26.42-3.19,35.78-12.09,7.69-7.31,11.93-17.73,13.22-28.27a80.66,80.66,0,0,0-.52-21.05c-1.26-8.93-.83-9.39-8.58-9.42C272.65,369.62,262.08,367.9,249.14,362.79Z" style="fill:#b2475e"/><path d="M1631.12,271.8c-2.51-5.63-6.52-11.26-12.51-12.74s-12.35,1.79-16.22,6.59-5.71,10.88-7.27,16.85c-3.31,12.65-5.72,25.95-3,38.75s11.44,25.05,24.06,28.47c3.22.87,6.77,1.12,9.82-.24,6.88-3.09,8-12.26,7.87-19.8C1633.6,311.2,1638.8,289,1631.12,271.8Z" style="fill:#fcd6d2"/><path d="M1879.8,210.63c2.51-5.63,6.52-11.26,12.51-12.74s12.35,1.8,16.22,6.6,5.72,10.88,7.28,16.84c3.3,12.65,5.72,25.95,3,38.76s-11.44,25.05-24.07,28.46c-3.22.87-6.77,1.12-9.81-.24-6.89-3.08-8-12.25-7.88-19.79C1877.32,250,1872.12,227.84,1879.8,210.63Z" style="fill:#fcd6d2"/><path d="M1716.9,299.18c-2-6.44-7.87-12.1-15-8.52-5.56,2.79-8.14,9.84-9.33,15.59-1.58,7.69-1,16.6,6.54,20.94s15.81-.08,19-7.57C1720.87,313.31,1720.79,305.08,1716.9,299.18Z" style="fill:#272425"/><path d="M1805.58,301.3c-.89-4.38-3.13-8.89-7-11.31a10.59,10.59,0,0,0-10-.65c-3.15.12-5.64,2.1-7.27,5.57a25.07,25.07,0,0,0-2.12,13.3c-.28,8.7,3,17.38,12.51,17.61a10,10,0,0,0,1.57-.09,10.28,10.28,0,0,0,5.8-1.64C1806,319.72,1807.09,308.68,1805.58,301.3Z" style="fill:#272425"/><path d="M270.66,261.61c-.47-5.25-2.91-10.22-8.34-11.76-5.15-1.46-10.07,1.86-12.38,6.29-4.22,8.11-3.1,21.16,7.09,24,7.66,2.15,13.14-4.39,13.49-11.38,0-.9,0-1.85,0-2.81A18.31,18.31,0,0,0,270.66,261.61Z" style="fill:#272425"/><path d="M63.15,187.86c15.37-14.5,36-26.72,56.66-22.24,11.42,2.48,21.93,9.92,33.59,9.1,4.73-.33,9.25-2,13.56-4,4.94-2.29,9.77-5,13.59-8.92,4.42-4.5,7.26-10.29,10.67-15.6a81,81,0,0,1,26.5-25.7c3.66-2.18,7.6-4.11,11.84-4.5,5.24-.48,10.36,1.41,15.53,2.38,18.17,3.41,37.09-5.08,50-18.32a83.94,83.94,0,0,0,8.64-10.48,65.83,65.83,0,0,0,1.45-18.75c-1.26-15.39-9.51-28.8-19-39.91C272.71,15.1,255.32,2.09,235.56.2S193.84,10.1,186.87,31c-1.08,3.22-2.07,7-4.85,8.49-3.44,1.9-7.29-.75-10.41-3.06C134.75,9.17,80.77,21.57,48,56.54c-27,28.81-53.71,88.69-46.86,131,2.67,16.54,22.94,21,39.33,23.48C48.07,203.43,55.31,195.25,63.15,187.86Z" style="fill:#f89b26"/><path d="M295.07,100c-12.89,13.24-31.81,21.73-50,18.32-5.17-1-10.29-2.86-15.53-2.38-4.24.39-8.18,2.32-11.84,4.5a81,81,0,0,0-26.5,25.7c-3.41,5.31-6.25,11.1-10.67,15.6-3.82,3.89-8.65,6.63-13.59,8.92-4.31,2-8.83,3.69-13.56,4-11.66.82-22.17-6.62-33.59-9.1-20.65-4.48-41.29,7.74-56.66,22.24-7.84,7.39-15.08,15.57-22.73,23.19,4.3.66,8.34,1.2,11.71,1.79a235.52,235.52,0,0,0,73.16,1.27c35.23-4.92,69.35-17.69,102.81-31.55,16.65-6.89,33.74-14.45,46.46-28.37,12-13.11,19-30.69,24.61-48.16a160.4,160.4,0,0,0,4.54-16.47A83.94,83.94,0,0,1,295.07,100Z" style="fill:#e07500"/><path d="M1612.8,296.59a11.53,11.53,0,0,0-2-4.12,4.45,4.45,0,0,0-4.08-1.67c-3,.59-3.65,4.44-3.7,7.45l-.1,7.28c-.06,4.27-.1,8.64,1.29,12.69,1.75,5.08,9.89,13.17,12.34,5.28C1618.67,316.67,1614.89,303.14,1612.8,296.59Z" style="fill:#f2beb8"/><path d="M1867,163.61c-8.86-10.23-15.65-23.3-28-28.78-19.1-8.45-40.23,5.27-56.34,18.55s-36.27,27.81-56,20.89c-7.67-2.7-13.92-8.37-21.31-11.75-19-8.65-44.19,1.58-51.76,21-3.76,9.66-3.48,20.34-5,30.59s-5.88,21.17-15.18,25.75c-7.35,3.62-16,2.14-23.15-2.16a155.8,155.8,0,0,0,8.17,32c3.94,10.4,12.55,36.38,23.86,24.49,8.91-9.36,9.38-27.11,13.35-38.82a74.12,74.12,0,0,1,49.88-46.91c15.38-4.17,31.71-3.2,47.33-6.32a92.54,92.54,0,0,0,45-23.18,282.91,282.91,0,0,0,66.81,111.39,14.08,14.08,0,0,0,22.73-3.87,150.81,150.81,0,0,0,13.88-79.32c-.75-7.44-2-14.82-3-22.24A76.69,76.69,0,0,1,1867,163.61Z" style="fill:#e07500"/><path d="M1897.05,161.5c1-30.05-18.73-56.64-48-63.71-31.21-7.56-62.46-19.91-94.49-21.59-21.8-1.14-43.52,2.71-65,6.53-18.82,3.36-38.56,7.13-53.29,19.32-21.88,18.11-26.65,49.4-28.07,77.77-1,19.12-1,38.78,2,57.89,7.14,4.3,15.8,5.78,23.15,2.16,9.3-4.58,13.61-15.5,15.18-25.75s1.29-20.93,5-30.59c7.57-19.43,32.8-29.66,51.76-21,7.39,3.38,13.64,9,21.31,11.75,19.7,6.92,39.86-7.6,56-20.89s37.24-27,56.34-18.55c12.37,5.48,19.16,18.55,28,28.78A76.69,76.69,0,0,0,1898.24,185c-.24-1.9-.48-3.79-.66-5.7A138.4,138.4,0,0,1,1897.05,161.5Z" style="fill:#f89b26"/></svg>