<svg xmlns="http://www.w3.org/2000/svg" viewBox="0 0 905.16 731.35"><title>illustration_erreur404_1</title><path d="M865.4,688.59c-2.36-107.07-32-181.39-69.73-232.8L787,463.16c70.87,100.07,67.7,225.43,67.7,225.43Z" style="fill:#686868"/><path d="M513.21,338.56l.35,10.66a721.41,721.41,0,0,1,119.22,6q-2.89-5.78-5.81-11.54A734.85,734.85,0,0,0,513.21,338.56Z" style="fill:#686868"/><path d="M261.37,455.61c-10.05-1.76-20.07,2.94-28.71,8.38s-17,11.87-26.95,14.19c-6.48,1.51-13.25,1.17-19.87,1.91A61.66,61.66,0,0,0,148,499l-.41.46c.36.16.69.34,1,.49,11.82,4.89,25.69,5.72,39,4.78,36.55-2.59,70.83-18.95,92.2-42.58l-.55-.14C273.2,460.2,267.63,456.7,261.37,455.61Z" style="fill:#f2beb8"/><path d="M139.12,246.17c21.49-12.91,39.66-33.25,64.31-37.77,6.41-1.18,13-1.2,19.41-2.34,19.56-3.46,36.3-17.34,46.31-34.49,1.44-2.47,2.74-5,3.94-7.59-1.33-1.58-2.65-3.16-4-4.72a274.74,274.74,0,0,0-92.89-68.8c-20.54-9.27-30.9-9.17-49,3.17A117,117,0,0,0,91.71,132.1c-11.46,19.93-17,41.66-21.61,63.27-6.27,29.39-11,59.13-12.33,88.9A142.38,142.38,0,0,1,71.38,276C93.21,264.45,117.94,258.89,139.12,246.17Z" style="fill:#f2beb8"/><path d="M329.8,274.09c-10.65-39-28.92-76.93-56.71-110.11-1.2,2.58-2.5,5.12-3.94,7.59-10,17.15-26.75,31-46.31,34.49-6.42,1.14-13,1.16-19.41,2.34-24.65,4.52-42.82,24.86-64.31,37.77C117.94,258.89,93.21,264.45,71.38,276a142.38,142.38,0,0,0-13.61,8.25,337.21,337.21,0,0,0,2,57.69C66,390.8,85,439.34,121.26,479c7.28,8,15.55,15.71,26.36,20.46L148,499a61.66,61.66,0,0,1,37.81-19c6.62-.74,13.39-.4,19.87-1.91,9.94-2.32,18.31-8.75,26.95-14.19s18.66-10.14,28.71-8.38c6.26,1.09,11.83,4.59,17.91,6.44l.55.14a92.41,92.41,0,0,0,15.27-22.64c14.07-30,9.36-62.65,6.31-95a27.68,27.68,0,0,1,16-27.61c5.73-2.7,10.49-7.17,12.82-12.16C334.79,295,332.57,284.22,329.8,274.09Z" style="fill:#fcd6d2"/><path d="M500.64,453.88c-9.55-12.9-25.78-18.82-41.4-22.49s-32-5.89-45.81-14c-1.61-.94-3.15-2-4.66-3.05,3.21,17.92,6.06,36.58.55,53.87-4.24,13.34-13.11,24.64-21.8,35.61-17.08,21.57-50.26,51.4-75.13,63.17-59.68,28.25-178,6-198.28,8.51-39.23,4.93-44.82-8.32-84.25-11.1-7-.5-15.17-.62-19.74,4.73-2.43,2.85-3.27,6.69-4,10.37-2.56,13,1.2,38-.48,51.11-1.27,10-2.21,20.6,1.91,29.8C12.21,670.82,44.42,699.1,55.46,702c35.53,9.34,79.59,13.24,116.29,11.74,44-1.8,155.12-8.92,193.8-29.87,45.83-24.83,101.78-80.06,128.18-125a360,360,0,0,0,26.47-55.5,69.11,69.11,0,0,1-5.77-13.44C510.51,477.59,508.34,464.27,500.64,453.88Z" style="fill:#fcd6d2"/><path d="M543.2,353.18c-9.33-8.34-23.2-10.36-35-6.23-38.25,13.35-70.65,37.13-99.8,65.27.12.69.25,1.4.38,2.1,1.51,1.07,3.05,2.11,4.66,3.05,13.83,8.13,30.19,10.36,45.81,14s31.85,9.59,41.4,22.49c7.7,10.39,9.87,23.71,13.79,36a69.11,69.11,0,0,0,5.77,13.44A366.22,366.22,0,0,0,543.2,353.18Z" style="fill:#f2beb8"/><path d="M581.57,271.12a8.3,8.3,0,0,0-1.94-4c-1.25-1.18-3.07-1.48-4.78-1.71-4-.54-7.9-1-11.86-1.5.29,1.36.57,2.73.86,4.09,1.23,5.83,2.46,11.79,1.79,17.71s-3.57,11.91-8.8,14.77c-8.15,4.46-18.13,0-26.31-4.42-10.17,11-29.77,11-40,.09-10.65,8.45-27.15,8.43-37.78,0-.91-.72-1.94-1.55-3.09-1.36a4.31,4.31,0,0,0-2.06,1.31c-8.5,7.8-23.11,7.61-31.4-.41-5-4.85-7.51-11.63-10.18-18.06a212.64,212.64,0,0,0-9.81-20.49H395q-19.92.19-39.82.52c-.07.46-.13.93-.2,1.39a390.74,390.74,0,0,1,5.64,151.72,61.07,61.07,0,0,1-2.83,12c-.69,1.8-1.53,3.57-2.34,5.35q37.78-3.74,75.54-7.91,5.16-14.86,11.05-29.47c2.18-5.37,4.49-10.8,8.13-15.3.86-1.06,1.94-2.14,3.3-2.18,2.38-.06,3.54,2.84,4,5.18a135.33,135.33,0,0,1,1.36,38.7Q517.56,410.5,576.19,403c2.09-.27,4.3-.59,6-1.9,2.12-1.66,2.85-4.5,3.4-7.14A260,260,0,0,0,581.57,271.12Z" style="fill:#f89b26"/><path d="M416.22,295.69c8.29,8,22.9,8.21,31.4.41a4.31,4.31,0,0,1,2.06-1.31c1.15-.19,2.18.64,3.09,1.36,10.63,8.47,27.13,8.49,37.78,0,10.21,10.92,29.81,10.87,40-.09,8.18,4.42,18.16,8.88,26.31,4.42,5.23-2.86,8.13-8.85,8.8-14.77s-.56-11.88-1.79-17.71c-.29-1.36-.57-2.73-.86-4.09-3.31-.4-6.62-.77-9.93-1.13-52-5.6-104.43-6.18-156.83-5.68A212.64,212.64,0,0,1,406,277.63C408.71,284.06,411.22,290.84,416.22,295.69Z" style="fill:#e07500"/><path d="M457.47,378.43c-.43-2.34-1.59-5.24-4-5.18-1.36,0-2.44,1.12-3.3,2.18-3.64,4.5-5.95,9.93-8.13,15.3Q436.16,405.31,431,420.2q13.91-1.51,27.81-3.07A135.33,135.33,0,0,0,457.47,378.43Z" style="fill:#e07500"/><path d="M360.65,410.78A390.74,390.74,0,0,0,355,259.06c-8.41,54.61-7.74,114.47.42,169.05h.05c.81-1.78,1.65-3.55,2.34-5.35A61.07,61.07,0,0,0,360.65,410.78Z" style="fill:#e07500"/><path d="M532.58,281c1.81,3,3.72,6,6.68,7.86,2.61,1.61,5.76,2.06,8.82,2.26,5.19.34,10.78-.09,14.9-3.27s5.93-8.6,5.62-13.74-2.54-10-5.41-14.28c-6.71-10-17.83-17.71-29.9-17.8-4.07,0-8.3.86-11.49,3.38C510.21,254.58,527.4,272.51,532.58,281Z" style="fill:#fcd6d2"/><path d="M492.3,281c1.81,3,3.73,6,6.68,7.86,2.62,1.61,5.77,2.06,8.83,2.26,5.18.34,10.78-.09,14.89-3.27s5.93-8.6,5.63-13.74-2.55-10-5.41-14.28c-6.72-10-17.84-17.71-29.91-17.8-4.07,0-8.3.86-11.49,3.38C469.93,254.58,487.12,272.51,492.3,281Z" style="fill:#fcd6d2"/><path d="M452,281c1.81,3,3.72,6,6.68,7.86,2.61,1.61,5.76,2.06,8.82,2.26,5.19.34,10.78-.09,14.89-3.27s5.94-8.6,5.63-13.74-2.54-10-5.41-14.28c-6.71-10-17.83-17.71-29.9-17.8-4.07,0-8.3.86-11.5,3.38C429.66,254.58,446.85,272.51,452,281Z" style="fill:#fcd6d2"/><path d="M411.75,281c1.81,3,3.73,6,6.68,7.86,2.61,1.61,5.77,2.06,8.83,2.26,5.18.34,10.78-.09,14.89-3.27s5.93-8.6,5.62-13.74-2.54-10-5.4-14.28c-6.72-10-17.84-17.71-29.91-17.8-4.07,0-8.3.86-11.49,3.38C389.38,254.58,406.57,272.51,411.75,281Z" style="fill:#fcd6d2"/><path d="M413.07,371.4c8.2-8.57,20.24-15.63,31.5-11.92,11.06,3.65,16.75,17.63,12.85,28.6-1.21,3.41-3.16,6.54-4.3,10-1,3-1.35,6.24-2.24,9.31-2.5,8.68-9.31,15.75-17.42,19.73s-17.41,5.08-26.42,4.4C374,429,401.31,383.69,413.07,371.4Z" style="fill:#fcd6d2"/><path d="M249.14,427.36l-23.77,9.39c-4.78,1.89-9.72,3.81-14.87,3.76-12.23-.13-21.78-11.56-24.76-23.41-4.24-16.86,1.68-35.5,13.72-48s29.57-19.14,46.95-19.42c12.91-.21,26.42,3.19,35.78,12.08,7.69,7.31,11.93,17.74,13.22,28.27a80.65,80.65,0,0,1-.52,21.05c-1.26,8.94-.83,9.39-8.58,9.43C272.65,420.53,262.08,422.25,249.14,427.36Z" style="fill:#b2475e"/><path d="M270.66,261.61c-.47-5.25-2.91-10.22-8.34-11.76-5.15-1.46-10.07,1.86-12.38,6.29-4.22,8.11-3.1,21.16,7.09,24,7.66,2.15,13.14-4.39,13.49-11.38,0-.9,0-1.85,0-2.81A18.31,18.31,0,0,0,270.66,261.61Z" style="fill:#272425"/><path d="M63.15,187.86c15.37-14.5,36-26.72,56.66-22.24,11.42,2.48,21.93,9.92,33.59,9.1,4.73-.33,9.25-2,13.56-4,4.94-2.29,9.77-5,13.59-8.92,4.42-4.5,7.26-10.29,10.67-15.6a81,81,0,0,1,26.5-25.7c3.66-2.18,7.6-4.11,11.84-4.5,5.24-.48,10.36,1.41,15.53,2.38,18.17,3.41,37.09-5.08,50-18.32a83.94,83.94,0,0,0,8.64-10.48,65.83,65.83,0,0,0,1.45-18.75c-1.26-15.39-9.51-28.8-19-39.91C272.71,15.1,255.32,2.09,235.56.2S193.84,10.1,186.87,31c-1.08,3.22-2.07,7-4.85,8.49-3.44,1.9-7.29-.75-10.41-3.06C134.75,9.17,80.77,21.57,48,56.54c-27,28.81-53.71,88.69-46.86,131,2.67,16.54,22.94,21,39.33,23.48C48.07,203.43,55.31,195.25,63.15,187.86Z" style="fill:#f89b26"/><path d="M295.07,100c-12.89,13.24-31.81,21.73-50,18.32-5.17-1-10.29-2.86-15.53-2.38-4.24.39-8.18,2.32-11.84,4.5a81,81,0,0,0-26.5,25.7c-3.41,5.31-6.25,11.1-10.67,15.6-3.82,3.89-8.65,6.63-13.59,8.92-4.31,2-8.83,3.69-13.56,4-11.66.82-22.17-6.62-33.59-9.1-20.65-4.48-41.29,7.74-56.66,22.24-7.84,7.39-15.08,15.57-22.73,23.19,4.3.66,8.34,1.2,11.71,1.79a235.52,235.52,0,0,0,73.16,1.27c35.23-4.92,69.35-17.69,102.81-31.55,16.65-6.89,33.74-14.45,46.46-28.37,12-13.11,19-30.69,24.61-48.16a160.4,160.4,0,0,0,4.54-16.47A83.94,83.94,0,0,1,295.07,100Z" style="fill:#e07500"/><path d="M750.76,713.9a59.92,59.92,0,0,0-12,2.73c-1.8.66-3.58,1.49-5.36,2.29,0,0,88.59,26.78,170.42,1.73l-1.39.19A390.57,390.57,0,0,0,750.76,713.9Z" style="fill:#e07500"/><path d="M900.36,522.77c-.32-3.32-.67-6.63-1-9.95q-.65-5.94-1.4-11.87c-.22-1.71-.5-3.53-1.66-4.79a8.28,8.28,0,0,0-4-2,260,260,0,0,0-122.75-5c-2.64.53-5.49,1.23-7.18,3.34-1.32,1.65-1.65,3.86-1.94,6Q752.37,557,745.25,615.67c-1.13,9.25-2.21,18.51-3.31,27.77q-4.44,37.72-8.55,75.48c1.78-.8,3.56-1.63,5.36-2.29a59.92,59.92,0,0,1,12-2.73,390.57,390.57,0,0,1,151.66,6.94l1.39-.19q.48-19.89.87-39.82c0-.4,0-.8,0-1.2C905.65,627.25,905.52,574.81,900.36,522.77Z" style="fill:#f89b26"/><path d="M627,343.7l5.81,11.54C705.22,375.72,754,416.68,786.9,463.09l8.73-7.36C725.23,359.73,627,343.7,627,343.7Z" style="fill:#898989"/><path d="M795.63,455.73l-8.73,7.36.05.07,8.72-7.37Z" style="fill:#898989"/></svg>